<?xml version="1.0" encoding="UTF-8" standalone="no"?>
<!-- Created with Inkscape (http://www.inkscape.org/) -->

<svg
   width="112.53434mm"
   height="109.67978mm"
   viewBox="0 0 112.53434 109.67978"
   version="1.1"
   id="svg1"
   xml:space="preserve"
   xmlns="http://www.w3.org/2000/svg"
   xmlns:svg="http://www.w3.org/2000/svg"><defs
     id="defs1" /><g
     id="layer1"
     style="display:inline"
     transform="translate(-51.967703,-88.000343)"><path
       id="path51"
       style="baseline-shift:baseline;display:inline;overflow:visible;vector-effect:none;fill:#19b5aa;stroke-width:3.80377;stroke-linejoin:round;enable-background:accumulate;stop-color:#000000"
       d="m 121.92598,97.209529 c 9.42237,4.476051 17.25589,11.716381 22.45956,20.757291 l 17.03045,0.37924 c 0,0 3.98384,-20.710165 -1.95389,-20.863458 -2.01862,-0.05211 -7.00358,-0.100425 -12.70403,-0.1415 l 0.0453,4.601608 c 0.0266,2.79966 -2.2737,5.14502 -5.07335,5.17165 -2.79532,0.0267 -5.14122,-2.27214 -5.17165,-5.06746 l -0.0472,-4.768674 c -7.84239,-0.04298 -14.58515,-0.06885 -14.58515,-0.06885 z" /><path
       style="opacity:1;fill:#19b5aa;fill-opacity:1;stroke:none;stroke-width:3.75812;stroke-linecap:square;stroke-linejoin:miter;stroke-dasharray:none;stroke-opacity:1"
       d="m 162.10199,150.96052 c -4.08852,15.58496 4.83338,34.49001 -4.66278,41.36886 -9.49619,6.87885 -37.4104,1.73159 -45.23601,3.41096 25.83831,-7.92744 16.40323,-18.12276 21.80113,-26.24777 6.34488,-9.55044 20.4935,4.67921 28.09766,-18.53205 z"
       id="path30" /><path
       id="path19"
       style="opacity:1;fill:none;stroke:#212e48;stroke-width:4.83079;stroke-linecap:round;stroke-linejoin:miter;stroke-dasharray:none;stroke-opacity:1"
       d="M 129.97926,122.27753 105.81112,143.83704 88.94036,131.94067" /><path
       style="opacity:1;fill:none;stroke:#19b5aa;stroke-width:3.37775;stroke-linecap:round;stroke-linejoin:round;stroke-dasharray:none;stroke-opacity:1"
       d="M 90.555328,169.68805 105.81112,143.83704"
       id="path29" /><path
       id="path21"
       style="opacity:1;fill:#19b5aa;fill-opacity:1;stroke:#212e48;stroke-width:3.57935;stroke-linecap:round;stroke-linejoin:miter;stroke-dasharray:none;stroke-opacity:1"
       d="m 110.41353,143.77633 a 4.6295261,4.6295261 0 0 1 -4.62953,4.62953 4.6295261,4.6295261 0 0 1 -4.62954,-4.62953 4.6295261,4.6295261 0 0 1 4.62954,-4.62954 4.6295261,4.6295261 0 0 1 4.62953,4.62954 z" /><g
       id="g54"
       transform="matrix(3.8037717,0,0,3.8037717,-421.82292,-391.90796)"><path
         id="rect6"
         style="display:inline;opacity:1;fill:none;stroke:#212e48;stroke-width:1.32292;stroke-linejoin:round;stroke-opacity:1"
         d="m 146.78485,128.65956 -2.27687,0.0153 c -1.8761,-0.89208 -3.88509,-1.32254 -5.87717,-1.31258 -3.32012,0.0166 -6.59332,1.25653 -9.1245,3.6189 -4.04989,3.77979 -5.37814,9.65085 -3.34967,14.80582 2.02847,5.15497 7.01715,8.54645 12.55686,8.55245 h 13.0452 c 0.95459,0 1.72289,-0.76831 1.72289,-1.7229 v -22.21828 c 0,-0.9546 -0.76832,-1.71702 -1.72289,-1.72341 l -2.28012,-0.0153" /><path
         style="baseline-shift:baseline;display:inline;overflow:visible;vector-effect:none;fill:#212e48;stroke-linecap:round;stroke-linejoin:round;enable-background:accumulate;stop-color:#000000"
         d="m 148.10562,126.16648 a 0.69612776,0.69612776 0 0 0 -0.68826,0.70274 l 0.0303,2.98361 a 0.69612776,0.69612776 0 0 0 0.70277,0.68826 0.69612776,0.69612776 0 0 0 0.68988,-0.70274 l -0.0303,-2.98201 a 0.69612776,0.69612776 0 0 0 -0.70439,-0.68986 z"
         id="path49" /><path
         style="opacity:1;fill:none;stroke:#212e48;stroke-width:1.388;stroke-linecap:round;stroke-linejoin:round;stroke-dasharray:none;stroke-opacity:1"
         d="m 152.81808,134.12213 -4.93743,0.0446"
         id="path22" /></g><g
       id="g53"
       transform="matrix(3.8037717,0,0,3.8037717,-421.82292,-391.90796)"><path
         style="opacity:1;fill:none;stroke:#212e48;stroke-width:0.488;stroke-linecap:square;stroke-linejoin:round;stroke-dasharray:none;stroke-opacity:1"
         d="m 150.62089,137.68245 -5.16473,0.0446"
         id="path23" /><path
         style="opacity:1;fill:none;stroke:#212e48;stroke-width:0.488;stroke-linecap:square;stroke-linejoin:round;stroke-dasharray:none;stroke-opacity:1"
         d="m 150.62089,141.1424 -7.50115,0.0446"
         id="path24" /><path
         style="opacity:1;fill:none;stroke:#212e48;stroke-width:0.488;stroke-linecap:square;stroke-linejoin:round;stroke-dasharray:none;stroke-opacity:1"
         d="m 150.62089,144.35454 -8.9912,0.0446"
         id="path25" /><path
         style="opacity:1;fill:none;stroke:#212e48;stroke-width:0.488;stroke-linecap:square;stroke-linejoin:round;stroke-dasharray:none;stroke-opacity:1"
         d="m 147.79334,145.07971 -0.009,-1.84308 -0.0355,-7.14812"
         id="path26" /><path
         style="opacity:1;fill:none;stroke:#212e48;stroke-width:0.488;stroke-linecap:square;stroke-linejoin:round;stroke-dasharray:none;stroke-opacity:1"
         d="m 144.26274,145.07971 -0.009,-1.24256 -0.0355,-4.81905"
         id="path27" /></g><path
       style="opacity:1;fill:#19b5aa;fill-opacity:1;stroke:#212e48;stroke-width:3.75812;stroke-linecap:square;stroke-linejoin:miter;stroke-dasharray:none;stroke-opacity:1"
       d="m 161.98601,146.35392 c -1.11296,12.24619 -5.90508,43.71995 -50.18311,48.81004 24.63656,-3.39073 17.33912,-18.35255 22.20143,-25.67139 6.34487,-9.55043 26.06606,-0.60329 27.98168,-23.13865 z"
       id="path28" /><text
       xml:space="preserve"
       style="font-style:normal;font-variant:normal;font-weight:bold;font-stretch:normal;font-size:14.7607px;font-family:Candara;-inkscape-font-specification:'Candara Bold';text-align:start;writing-mode:lr-tb;direction:ltr;text-anchor:start;fill:#212e48;fill-opacity:1;stroke:none;stroke-width:0.848241;stroke-linecap:round;stroke-linejoin:round;stroke-dasharray:none;stroke-opacity:1"
       x="108.40847"
       y="99.602417"
       id="text41"
       transform="scale(0.91051279,1.0982822)"><tspan
         id="tspan41"
         style="font-style:normal;font-variant:normal;font-weight:bold;font-stretch:normal;font-size:14.7607px;font-family:Candara;-inkscape-font-specification:'Candara Bold';stroke-width:0.848241"
         x="108.40847"
         y="99.602417">XII</tspan></text><text
       xml:space="preserve"
       style="font-style:normal;font-variant:normal;font-weight:bold;font-stretch:normal;font-size:14.7607px;font-family:Candara;-inkscape-font-specification:'Candara Bold';text-align:start;writing-mode:lr-tb;direction:ltr;text-anchor:start;fill:#212e48;fill-opacity:1;stroke:none;stroke-width:0.848241;stroke-linecap:round;stroke-linejoin:round;stroke-dasharray:none;stroke-opacity:1"
       x="13.852387"
       y="130.22763"
       id="text42"
       transform="matrix(0.78852721,-0.45525639,0.54914111,0.9511403,0,0)"><tspan
         id="tspan42"
         style="font-style:normal;font-variant:normal;font-weight:bold;font-stretch:normal;font-size:14.7607px;font-family:Candara;-inkscape-font-specification:'Candara Bold';stroke-width:0.848241"
         x="13.852387"
         y="130.22763">XI</tspan></text><text
       xml:space="preserve"
       style="font-style:normal;font-variant:normal;font-weight:bold;font-stretch:normal;font-size:14.7607px;font-family:Candara;-inkscape-font-specification:'Candara Bold';text-align:start;writing-mode:lr-tb;direction:ltr;text-anchor:start;fill:#212e48;fill-opacity:1;stroke:none;stroke-width:0.848241;stroke-linecap:round;stroke-linejoin:round;stroke-dasharray:none;stroke-opacity:1"
       x="-86.505966"
       y="117.55468"
       id="text43"
       transform="matrix(0.4552564,-0.7885272,0.9511403,0.54914111,0,0)"><tspan
         id="tspan43"
         style="font-style:normal;font-variant:normal;font-weight:bold;font-stretch:normal;font-size:14.7607px;font-family:Candara;-inkscape-font-specification:'Candara Bold';stroke-width:0.848241"
         x="-86.505966"
         y="117.55468">X</tspan></text><text
       xml:space="preserve"
       style="font-style:normal;font-variant:normal;font-weight:bold;font-stretch:normal;font-size:14.7607px;font-family:Candara;-inkscape-font-specification:'Candara Bold';text-align:start;writing-mode:lr-tb;direction:ltr;text-anchor:start;fill:#212e48;fill-opacity:1;stroke:none;stroke-width:0.848241;stroke-linecap:round;stroke-linejoin:round;stroke-dasharray:none;stroke-opacity:1"
       x="-165.77568"
       y="64.979408"
       id="text44"
       transform="matrix(0,-0.91051279,1.0982822,0,0,0)"><tspan
         id="tspan44"
         style="font-style:normal;font-variant:normal;font-weight:bold;font-stretch:normal;font-size:14.7607px;font-family:Candara;-inkscape-font-specification:'Candara Bold';stroke-width:0.848241"
         x="-165.77568"
         y="64.979408">IV</tspan></text><text
       xml:space="preserve"
       style="font-style:normal;font-variant:normal;font-weight:bold;font-stretch:normal;font-size:14.7607px;font-family:Candara;-inkscape-font-specification:'Candara Bold';text-align:start;writing-mode:lr-tb;direction:ltr;text-anchor:start;fill:#212e48;fill-opacity:1;stroke:none;stroke-width:0.848241;stroke-linecap:round;stroke-linejoin:round;stroke-dasharray:none;stroke-opacity:1"
       x="-202.71648"
       y="-13.410772"
       id="text45"
       transform="matrix(-0.4552564,-0.78852721,0.95114029,-0.5491411,0,0)"><tspan
         id="tspan45"
         style="font-style:normal;font-variant:normal;font-weight:bold;font-stretch:normal;font-size:14.7607px;font-family:Candara;-inkscape-font-specification:'Candara Bold';stroke-width:0.848241"
         x="-202.71648"
         y="-13.410772">XIII</tspan></text><text
       xml:space="preserve"
       style="font-style:normal;font-variant:normal;font-weight:bold;font-stretch:normal;font-size:14.7607px;font-family:Candara;-inkscape-font-specification:'Candara Bold';text-align:start;writing-mode:lr-tb;direction:ltr;text-anchor:start;fill:#212e48;fill-opacity:1;stroke:none;stroke-width:0.848241;stroke-linecap:round;stroke-linejoin:round;stroke-dasharray:none;stroke-opacity:1"
       x="-187.43005"
       y="-96.611206"
       id="text46"
       transform="matrix(-0.78852721,-0.4552564,0.5491411,-0.95114029,0,0)"><tspan
         id="tspan46"
         style="font-style:normal;font-variant:normal;font-weight:bold;font-stretch:normal;font-size:14.7607px;font-family:Candara;-inkscape-font-specification:'Candara Bold';stroke-width:0.848241"
         x="-187.43005"
         y="-96.611206">VI</tspan></text><text
       xml:space="preserve"
       style="font-style:normal;font-variant:normal;font-weight:bold;font-stretch:normal;font-size:14.7607px;font-family:Candara;-inkscape-font-specification:'Candara Bold';text-align:start;writing-mode:lr-tb;direction:ltr;text-anchor:start;fill:#212e48;fill-opacity:1;stroke:none;stroke-width:0.848241;stroke-linecap:round;stroke-linejoin:round;stroke-dasharray:none;stroke-opacity:1"
       x="-124.0125"
       y="-162.32851"
       id="text47"
       transform="scale(-0.9105128,-1.0982822)"><tspan
         id="tspan47"
         style="font-style:normal;font-variant:normal;font-weight:bold;font-stretch:normal;font-size:14.7607px;font-family:Candara;-inkscape-font-specification:'Candara Bold';stroke-width:0.848241"
         x="-124.0125"
         y="-162.32851">VII</tspan></text></g></svg>
